<svg width="35" height="35" viewBox="0 0 35 35" fill="none" xmlns="http://www.w3.org/2000/svg">
<path d="M9.4031 11.6221C9.41672 11.4996 9.42352 11.4383 9.43015 11.3852C9.92442 7.4211 13.2672 4.42921 17.2616 4.37572C17.3151 4.375 17.3767 4.375 17.5 4.375V4.375C17.6233 4.375 17.6849 4.375 17.7384 4.37572C21.7328 4.42921 25.0756 7.4211 25.5699 11.3852C25.5765 11.4383 25.5833 11.4996 25.5969 11.6221L25.9641 14.927C26.0567 15.7606 26.103 16.1774 26.1914 16.5832C26.3177 17.163 26.508 17.727 26.759 18.2647C26.9346 18.6411 27.1504 19.0007 27.582 19.7199L28.8076 21.7627C29.6134 23.1056 30.0162 23.7771 29.729 24.2844C29.4418 24.7917 28.6587 24.7917 27.0926 24.7917H7.90738C6.34127 24.7917 5.55822 24.7917 5.27099 24.2844C4.98376 23.7771 5.38664 23.1056 6.19239 21.7627L7.41804 19.7199C7.84958 19.0007 8.06536 18.6411 8.241 18.2647C8.49198 17.727 8.68235 17.163 8.8086 16.5832C8.89695 16.1774 8.94327 15.7606 9.03589 14.927L9.4031 11.6221Z" stroke="#5794DA" stroke-width="2.5"/>
<path d="M11.6673 24.7917C11.6673 25.5577 11.8182 26.3163 12.1114 27.024C12.4045 27.7317 12.8342 28.3748 13.3759 28.9165C13.9175 29.4581 14.5606 29.8878 15.2683 30.181C15.9761 30.4741 16.7346 30.625 17.5007 30.625C18.2667 30.625 19.0252 30.4741 19.733 30.181C20.4407 29.8878 21.0838 29.4581 21.6254 28.9165C22.1671 28.3748 22.5968 27.7317 22.8899 27.024C23.1831 26.3163 23.334 25.5577 23.334 24.7917" stroke="#5794DA" stroke-width="2.5" stroke-linecap="round"/>
</svg>
