<svg width="30" height="31" viewBox="0 0 30 31" fill="none" xmlns="http://www.w3.org/2000/svg">
<path d="M8.125 28V19.25" stroke="#5794DA" stroke-width="2" stroke-miterlimit="10" stroke-linecap="round" stroke-linejoin="round"/>
<path d="M8.125 6.75V3" stroke="#5794DA" stroke-width="2" stroke-miterlimit="10" stroke-linecap="round" stroke-linejoin="round"/>
<path d="M21.875 28V24.25" stroke="#5794DA" stroke-width="2" stroke-miterlimit="10" stroke-linecap="round" stroke-linejoin="round"/>
<path d="M21.875 11.75V3" stroke="#5794DA" stroke-width="2" stroke-miterlimit="10" stroke-linecap="round" stroke-linejoin="round"/>
<path d="M11.875 9.25V16.75C11.875 18.125 11.25 19.25 9.375 19.25H6.875C5 19.25 4.375 18.125 4.375 16.75V9.25C4.375 7.875 5 6.75 6.875 6.75H9.375C11.25 6.75 11.875 7.875 11.875 9.25Z" stroke="#5794DA" stroke-width="2" stroke-miterlimit="10" stroke-linecap="round" stroke-linejoin="round"/>
<path d="M25.625 14.25V21.75C25.625 23.125 25 24.25 23.125 24.25H20.625C18.75 24.25 18.125 23.125 18.125 21.75V14.25C18.125 12.875 18.75 11.75 20.625 11.75H23.125C25 11.75 25.625 12.875 25.625 14.25Z" stroke="#5794DA" stroke-width="2" stroke-miterlimit="10" stroke-linecap="round" stroke-linejoin="round"/>
</svg>
