<svg width="20" height="21" viewBox="0 0 20 21" fill="none" xmlns="http://www.w3.org/2000/svg">
<path d="M7.75781 12.7493L9.00781 13.9993L12.3411 10.666" stroke="white" stroke-width="2" stroke-linecap="round" stroke-linejoin="round"/>
<path d="M8.33268 5.49935H11.666C13.3327 5.49935 13.3327 4.66602 13.3327 3.83268C13.3327 2.16602 12.4993 2.16602 11.666 2.16602H8.33268C7.49935 2.16602 6.66602 2.16602 6.66602 3.83268C6.66602 5.49935 7.49935 5.49935 8.33268 5.49935Z" stroke="white" stroke-width="2" stroke-miterlimit="10" stroke-linecap="round" stroke-linejoin="round"/>
<path d="M13.3333 3.84961C16.1083 3.99961 17.5 5.02461 17.5 8.83294V13.8329C17.5 17.1663 16.6667 18.8329 12.5 18.8329H7.5C3.33333 18.8329 2.5 17.1663 2.5 13.8329V8.83294C2.5 5.03294 3.89167 3.99961 6.66667 3.84961" stroke="white" stroke-width="2" stroke-miterlimit="10" stroke-linecap="round" stroke-linejoin="round"/>
</svg>
