<svg width="25" height="25" viewBox="0 0 25 25" fill="none" xmlns="http://www.w3.org/2000/svg">
<path d="M18.5625 6.01038C16.7396 4.63538 14.6563 3.88538 12.5 3.88538C8.82292 3.88538 5.39584 6.05204 3.01042 9.80204C2.07292 11.2708 2.07292 13.7395 3.01042 15.2083C3.83334 16.5 4.79167 17.6145 5.83334 18.5104" stroke="#028AEF" stroke-width="2" stroke-linecap="round" stroke-linejoin="round"/>
<path d="M16.2083 12.4792C16.2083 14.5417 14.5417 16.2083 12.4792 16.2083C10.4167 16.2083 8.75 14.5417 8.75 12.4792C8.75 10.4167 10.4167 8.75 12.4792 8.75C14.5417 8.75 16.2083 10.4167 16.2083 12.4792Z" fill="#028AEF"/>
<path d="M8.77083 20.3437C9.95833 20.8437 11.2187 21.1145 12.5 21.1145C16.1771 21.1145 19.6042 18.9479 21.9896 15.1979C22.9271 13.7291 22.9271 11.2604 21.9896 9.79163C21.6458 9.24996 21.2708 8.73954 20.8854 8.26038" stroke="#028AEF" stroke-width="2" stroke-linecap="round" stroke-linejoin="round"/>
<path d="M9.86459 15.1354L2.08334 22.9166" stroke="#028AEF" stroke-width="2" stroke-linecap="round" stroke-linejoin="round"/>
<path d="M22.9167 2.08337L15.1354 9.86462" stroke="#028AEF" stroke-width="2" stroke-linecap="round" stroke-linejoin="round"/>
</svg>
