<svg width="25" height="25" viewBox="0 0 25 25" fill="none" xmlns="http://www.w3.org/2000/svg">
<path d="M16.2292 12.5C16.2292 14.5625 14.5625 16.2292 12.5 16.2292C10.4375 16.2292 8.77083 14.5625 8.77083 12.5C8.77083 10.4375 10.4375 8.77087 12.5 8.77087C14.5625 8.77087 16.2292 10.4375 16.2292 12.5Z" fill="#028AEF"/>
<path d="M12.5 21.1146C16.1771 21.1146 19.6042 18.9479 21.9896 15.1979C22.9271 13.7292 22.9271 11.2604 21.9896 9.79167C19.6042 6.04167 16.1771 3.875 12.5 3.875C8.82291 3.875 5.39583 6.04167 3.01041 9.79167C2.07291 11.2604 2.07291 13.7292 3.01041 15.1979C5.39583 18.9479 8.82291 21.1146 12.5 21.1146Z" stroke="#028AEF" stroke-width="2" stroke-linecap="round" stroke-linejoin="round"/>
</svg>
