<svg width="650" height="130" viewBox="0 0 650 130" fill="none" xmlns="http://www.w3.org/2000/svg">
<path fill-rule="evenodd" clip-rule="evenodd" d="M888.131 -51.7744C888.131 -46.9809 885.84 -42.4761 881.966 -39.6526L849.881 -16.2663C811.631 11.6132 735.131 67.3724 658.631 99.2347C582.131 131.097 505.631 139.063 429.131 115.166C352.631 91.2691 276.131 35.51 199.631 19.5788C123.131 3.64764 46.6308 27.5444 8.38084 39.4928L-10.3966 45.3584C-20.0553 48.3756 -29.8691 41.1596 -29.8691 31.0407V-76.9395C-29.8691 -85.2237 -23.1534 -91.9395 -14.8691 -91.9395H8.38084C46.6308 -91.9395 123.131 -91.9395 199.631 -91.9395C276.131 -91.9395 352.631 -91.9395 429.131 -91.9395C505.631 -91.9395 582.131 -91.9395 658.631 -91.9395C735.131 -91.9395 811.631 -91.9395 849.881 -91.9395H873.131C881.415 -91.9395 888.131 -85.2237 888.131 -76.9395V-51.7744Z" fill="#5794DA"/>
<path fill-rule="evenodd" clip-rule="evenodd" d="M838.246 -93.5327C838.246 -88.9805 836.179 -84.6747 832.627 -81.8279L804.278 -59.1078C770.309 -31.8842 702.372 22.563 634.435 53.6757C566.498 84.7884 498.561 92.5666 430.623 69.2321C362.686 45.8976 294.749 -8.54966 226.812 -24.106C158.875 -39.6623 90.9378 -16.3278 56.9692 -4.66056L42.8734 0.180975C33.1359 3.52553 23.0007 -3.7097 23.0007 -14.0055V-118C23.0007 -126.285 29.7164 -133 38.0007 -133H56.9692C90.9378 -133 158.875 -133 226.812 -133C294.749 -133 362.686 -133 430.623 -133C498.561 -133 566.498 -133 634.435 -133C702.372 -133 770.309 -133 804.278 -133H823.246C831.53 -133 838.246 -126.285 838.246 -118V-93.5327Z" fill="#6BA1DE"/>
</svg>
