<svg width="25" height="25" viewBox="0 0 25 25" fill="none" xmlns="http://www.w3.org/2000/svg">
<path d="M20.5 8.75V18.5C20.5 21.5 18.71 22.5 16.5 22.5H8.5C6.29 22.5 4.5 21.5 4.5 18.5V8.75C4.5 5.5 6.29 4.75 8.5 4.75C8.5 5.37 8.74997 5.93 9.15997 6.34C9.56997 6.75 10.13 7 10.75 7H14.25C15.49 7 16.5 5.99 16.5 4.75C18.71 4.75 20.5 5.5 20.5 8.75Z" stroke="white" stroke-width="1.7" stroke-linecap="round" stroke-linejoin="round"/>
<path d="M16.5 4.75C16.5 5.99 15.49 7 14.25 7H10.75C10.13 7 9.56997 6.75 9.15997 6.34C8.74997 5.93 8.5 5.37 8.5 4.75C8.5 3.51 9.51 2.5 10.75 2.5H14.25C14.87 2.5 15.43 2.75 15.84 3.16C16.25 3.57 16.5 4.13 16.5 4.75Z" stroke="white" stroke-width="1.7" stroke-linecap="round" stroke-linejoin="round"/>
<path d="M8.5 13.5H12.5" stroke="white" stroke-width="1.7" stroke-linecap="round" stroke-linejoin="round"/>
<path d="M8.5 17.5H16.5" stroke="white" stroke-width="1.7" stroke-linecap="round" stroke-linejoin="round"/>
</svg>
