<svg width="295" height="95" viewBox="0 0 295 95" fill="none" xmlns="http://www.w3.org/2000/svg">
<path fill-rule="evenodd" clip-rule="evenodd" d="M295 70.2853L282.192 77.5233C269.825 84.7614 244.65 99.2374 219.475 93.8089C193.858 88.3804 168.683 63.0472 143.508 59.4282C118.333 55.8092 93.1583 73.9043 67.9833 79.3328C42.8083 84.7614 17.1917 77.5233 -7.98333 66.6663C-33.1583 55.8092 -58.3333 41.3331 -83.5083 37.7141C-108.683 34.0951 -133.858 41.3331 -159.475 52.1902C-184.65 63.0472 -209.825 77.5233 -222.192 84.7614L-235 91.9994V16H-222.192C-209.825 16 -184.65 16 -159.475 16C-133.858 16 -108.683 16 -83.5083 16C-58.3333 16 -33.1583 16 -7.98333 16C17.1917 16 42.8083 16 67.9833 16C93.1583 16 118.333 16 143.508 16C168.683 16 193.858 16 219.475 16C244.65 16 269.825 16 282.192 16H295V70.2853Z" fill="#5794DA"/>
<path fill-rule="evenodd" clip-rule="evenodd" d="M-74 50.1623L-65.0825 56.8507C-56.4725 63.539 -38.945 76.9156 -21.4175 71.8994C-3.5825 66.8831 13.945 43.474 31.4725 40.1299C49 36.7857 66.5275 53.5065 84.055 58.5227C101.583 63.539 119.418 56.8507 136.945 46.8182C154.473 36.7857 172 23.4091 189.528 20.0649C207.055 16.7208 224.583 23.4091 242.418 33.4416C259.945 43.474 277.473 56.8507 286.083 63.539L295 70.2273V2.60553e-06H286.083C277.473 2.60553e-06 259.945 2.60553e-06 242.418 2.60553e-06C224.583 2.60553e-06 207.055 2.60553e-06 189.528 2.60553e-06C172 2.60553e-06 154.473 2.60553e-06 136.945 2.60553e-06C119.418 2.60553e-06 101.583 2.60553e-06 84.055 2.60553e-06C66.5275 2.60553e-06 49 2.60553e-06 31.4725 2.60553e-06C13.945 2.60553e-06 -3.5825 2.60553e-06 -21.4175 2.60553e-06C-38.945 2.60553e-06 -56.4725 2.60553e-06 -65.0825 2.60553e-06H-74V50.1623Z" fill="#6BA1DE"/>
</svg>
